<?xml version="1.0" encoding="UTF-8"?>
<!DOCTYPE svg PUBLIC "-//W3C//DTD SVG 1.1//EN" "http://www.w3.org/Graphics/SVG/1.1/DTD/svg11.dtd">
<!-- Creator: CorelDRAW 2021 (64-Bit) -->
<svg xmlns="http://www.w3.org/2000/svg" xml:space="preserve" width="1.26144in" height="0.833339in" version="1.1" style="shape-rendering:geometricPrecision; text-rendering:geometricPrecision; image-rendering:optimizeQuality; fill-rule:evenodd; clip-rule:evenodd"
viewBox="0 0 1261.41 833.32"
 xmlns:xlink="http://www.w3.org/1999/xlink"
 xmlns:xodm="http://www.corel.com/coreldraw/odm/2003">
 <defs>
  <style type="text/css">
   <![CDATA[
    .fil0 {fill:#394793}
    .fil1 {fill:#FFFEF8;fill-rule:nonzero}
   ]]>
  </style>
 </defs>
 <g id="Layer_x0020_1">
  <metadata id="CorelCorpID_0Corel-Layer"/>
  <g id="_2000639432896">
   <polygon class="fil0" points="0,0 1261.41,0 1261.41,626.92 0,626.92 "/>
   <rect class="fil0" x="0" y="757.06" width="1261.41" height="76.25"/>
   <rect class="fil0" x="0" y="653.81" width="1261.41" height="76.25"/>
   <path class="fil1" d="M680.37 504.48c3.52,15.35 12.6,22.9 28.49,22.9 25.46,0 30.08,-18.24 23.34,-26.41 -8.45,-10.24 -45.01,-10.07 -61.36,-24.83 -22.81,-20.59 -15.57,-64.21 36.28,-64.21 28.84,0 49.93,12.26 50.94,40.78l-27.17 0c-2.57,-13.57 -10.06,-18.43 -24.11,-18.43 -23.04,0 -26.9,14.13 -18.47,21.26 12.96,10.96 53.45,7.96 68.34,32.13 7.35,11.92 7.25,29.67 -1.05,42.7 -9.86,15.47 -27.89,19.74 -47.02,19.74 -31.91,0 -51.26,-14.2 -55,-45.62l26.79 0zm-503.89 -226.86l8.12 25.11 26.34 0 -21.34 15.48 8.13 25.05 -21.26 -15.42 -21.4 15.42 8.2 -25.05 -21.32 -15.48 26.33 0 8.19 -25.11zm706.88 -133.72l13 40.18 42.14 0 -34.14 24.76 13.01 40.09 -34.01 -24.68 -34.24 24.68 13.12 -40.09 -34.13 -24.76 42.14 0 13.11 -40.18zm-252.38 -66.54l17.87 55.25 57.95 0 -46.95 34.05 17.89 55.11 -46.76 -33.94 -47.07 33.94 18.03 -55.11 -46.92 -34.05 57.94 0 18.02 -55.25zm444.14 192.38l8.13 25.11 26.34 0 -21.34 15.48 8.13 25.05 -21.26 -15.42 -21.4 15.42 8.2 -25.05 -21.33 -15.48 26.34 0 8.19 -25.11zm-696.65 -125.84l12.99 40.18 42.14 0 -34.14 24.76 13.01 40.08 -34 -24.68 -34.24 24.68 13.12 -40.08 -34.13 -24.76 42.14 0 13.11 -40.18zm193.57 268.04c38.16,0 69.08,30.93 69.08,69.08 0,38.16 -30.93,69.08 -69.08,69.08 -38.16,0 -69.08,-30.93 -69.08,-69.08 0,-38.16 30.92,-69.08 69.08,-69.08zm0 27.03c-23.24,0 -42.05,18.82 -42.05,42.05 0,23.24 18.82,42.05 42.05,42.05 23.24,0 42.05,-18.82 42.05,-42.05 0,-23.24 -18.82,-42.05 -42.05,-42.05zm435.29 111.13l-30.13 0 -11.94 -31.45 -55.41 0 -11.48 31.45 -29.59 0 53.64 -138.16 29.55 0 55.35 138.16zm-51.14 -54.8l-19.2 -51.14 -18.65 51.14 37.85 0zm-574.87 54.8l0 -138.17c23.77,0 46.59,0 70.45,0 21.36,0 38.67,17.31 38.67,38.67 0,16.15 -9.89,29.98 -23.94,35.77l34.31 63.73 -32.29 0 -32.72 -60.79c-9.16,0 -18.32,0 -27.48,0l0 60.79 -27 0zm71.37 -84.14c8.08,-0.47 14.48,-7.16 14.48,-15.36 0,-8.02 -6.11,-14.59 -13.93,-15.32 -14.97,0 -29.94,0 -44.92,0l0 30.68c14.79,0 29.58,0 44.37,0zm-205.86 -54.03l27.03 0 0 85.21c0.01,14.33 11.62,25.93 25.96,25.93 14.34,0 25.96,-11.61 25.96,-25.96l0 -85.18 27.03 0 0 85.21c-0.01,29.26 -23.73,52.96 -52.98,52.96 -29.26,0 -52.98,-23.72 -52.98,-52.98l0 -85.18zm-124.21 138.17l0 -138.17 98.7 0 0 23.35 -71.7 0 0 30.68 71.7 0 0 23.35 -71.7 0 0 37.44 71.7 0 0 23.35 -98.7 0zm896.66 0l0 -138.17 70.46 0c21.36,0 38.67,17.31 38.67,38.67 0,16.15 -9.89,29.98 -23.94,35.77l34.31 63.73 -32.29 0 -32.72 -60.79c-9.16,0 -18.32,0 -27.48,0l0 60.79 -27 0zm71.37 -84.14c8.08,-0.47 14.48,-7.16 14.48,-15.36 0,-8.02 -6.11,-14.59 -13.93,-15.32 -14.97,0 -29.94,0 -44.92,0l0 30.68c14.79,0 29.58,0 44.37,0zm-275.81 84.14l0 -114.82 -39.48 0 0 -23.35 105.77 0 0 23.35 -39.29 0 0 114.82 -27 0z"/>
  </g>
 </g>
</svg>
